<mxfile host="app.diagrams.net" agent="Mozilla/5.0 (Windows NT 10.0; Win64; x64) AppleWebKit/537.36 (KHTML, like Gecko) Chrome/129.0.0.0 Safari/537.36" version="24.8.0">
  <diagram name="Page-1" id="42789a77-a242-8287-6e28-9cd8cfd52e62">
    <mxGraphModel dx="2787" dy="1758" grid="1" gridSize="10" guides="1" tooltips="1" connect="1" arrows="1" fold="1" page="1" pageScale="1" pageWidth="1100" pageHeight="850" background="none" math="0" shadow="0">
      <root>
        <mxCell id="0" />
        <mxCell id="1" parent="0" />
        <mxCell id="aNrE-HnWaW6_fpo6UWwL-61" value="" style="rounded=1;whiteSpace=wrap;html=1;fillColor=none;strokeColor=#0400ff;glass=0;" vertex="1" parent="1">
          <mxGeometry x="-40" y="-60" width="1610" height="780" as="geometry" />
        </mxCell>
        <mxCell id="1ea317790d2ca983-13" value="crea" style="edgeStyle=none;rounded=1;html=1;labelBackgroundColor=none;startArrow=none;startFill=0;startSize=5;endArrow=classicThin;endFill=1;endSize=5;jettySize=auto;orthogonalLoop=1;strokeColor=#B3B3B3;strokeWidth=1;fontFamily=Verdana;fontSize=14;exitX=0.5;exitY=1;exitDx=0;exitDy=0;" parent="1" source="aNrE-HnWaW6_fpo6UWwL-59" target="1ea317790d2ca983-9" edge="1">
          <mxGeometry x="0.0039" relative="1" as="geometry">
            <mxPoint x="960" y="80" as="sourcePoint" />
            <mxPoint as="offset" />
          </mxGeometry>
        </mxCell>
        <mxCell id="1ea317790d2ca983-19" value="recibe" style="edgeStyle=none;rounded=1;html=1;labelBackgroundColor=none;startArrow=none;startFill=0;startSize=5;endArrow=classicThin;endFill=1;endSize=5;jettySize=auto;orthogonalLoop=1;strokeColor=#B3B3B3;strokeWidth=1;fontFamily=Verdana;fontSize=14;exitX=1;exitY=0.5;exitDx=0;exitDy=0;" parent="1" source="aNrE-HnWaW6_fpo6UWwL-40" target="1ea317790d2ca983-9" edge="1">
          <mxGeometry relative="1" as="geometry">
            <mxPoint x="210" y="320" as="sourcePoint" />
          </mxGeometry>
        </mxCell>
        <mxCell id="1ea317790d2ca983-9" value="Proyectos" style="ellipse;whiteSpace=wrap;html=1;rounded=0;shadow=1;comic=0;labelBackgroundColor=none;strokeWidth=1;fontFamily=Verdana;fontSize=14;align=center;fillColor=#ffe6cc;strokeColor=#d79b00;" parent="1" vertex="1">
          <mxGeometry x="880" y="190" width="160" height="50" as="geometry" />
        </mxCell>
        <mxCell id="aNrE-HnWaW6_fpo6UWwL-1" value="Mapa conceptual:&lt;br style=&quot;font-size: 14px;&quot;&gt;Desarrollo de videojuego" style="text;html=1;align=center;verticalAlign=middle;whiteSpace=wrap;rounded=1;strokeWidth=3;perimeterSpacing=1;strokeColor=#6c8ebf;shadow=0;glass=0;fontStyle=1;fillColor=#dae8fc;fontSize=14;fontFamily=Helvetica;" vertex="1" parent="1">
          <mxGeometry x="-40" y="-60" width="210" height="120" as="geometry" />
        </mxCell>
        <mxCell id="aNrE-HnWaW6_fpo6UWwL-22" value="diseña" style="edgeStyle=none;rounded=1;html=1;labelBackgroundColor=none;startArrow=none;startFill=0;startSize=5;endArrow=classicThin;endFill=1;endSize=5;jettySize=auto;orthogonalLoop=1;strokeColor=#B3B3B3;strokeWidth=1;fontFamily=Verdana;fontSize=14;exitX=0;exitY=1;exitDx=0;exitDy=0;entryX=1;entryY=0.5;entryDx=0;entryDy=0;" edge="1" parent="1" source="aNrE-HnWaW6_fpo6UWwL-23" target="aNrE-HnWaW6_fpo6UWwL-51">
          <mxGeometry relative="1" as="geometry">
            <mxPoint x="750" y="455" as="targetPoint" />
          </mxGeometry>
        </mxCell>
        <mxCell id="aNrE-HnWaW6_fpo6UWwL-23" value="&lt;span style=&quot;font-size: 14px;&quot;&gt;Diseñadores&lt;/span&gt;" style="ellipse;whiteSpace=wrap;html=1;rounded=0;shadow=1;comic=0;labelBackgroundColor=none;strokeWidth=1;fontFamily=Verdana;fontSize=14;align=center;fillColor=#d5e8d4;strokeColor=#82b366;" vertex="1" parent="1">
          <mxGeometry x="1340" y="490" width="150" height="50" as="geometry" />
        </mxCell>
        <mxCell id="aNrE-HnWaW6_fpo6UWwL-29" value="&lt;span style=&quot;font-size: 14px;&quot;&gt;Desarrolladores&lt;/span&gt;" style="ellipse;whiteSpace=wrap;html=1;rounded=0;shadow=1;comic=0;labelBackgroundColor=none;strokeWidth=1;fontFamily=Verdana;fontSize=14;align=center;fillColor=#fff2cc;strokeColor=#d6b656;" vertex="1" parent="1">
          <mxGeometry x="650" y="310" width="150" height="50" as="geometry" />
        </mxCell>
        <mxCell id="aNrE-HnWaW6_fpo6UWwL-31" value="&lt;span style=&quot;font-size: 14px;&quot;&gt;Funcionalidad&lt;/span&gt;" style="ellipse;whiteSpace=wrap;html=1;rounded=0;shadow=1;comic=0;labelBackgroundColor=none;strokeWidth=1;fontFamily=Verdana;fontSize=14;align=center;fillColor=#fff2cc;strokeColor=#d6b656;" vertex="1" parent="1">
          <mxGeometry x="395" y="400" width="120" height="50" as="geometry" />
        </mxCell>
        <mxCell id="aNrE-HnWaW6_fpo6UWwL-38" value="se compone por" style="edgeStyle=none;rounded=1;html=1;labelBackgroundColor=none;startArrow=none;startFill=0;startSize=5;endArrow=classicThin;endFill=1;endSize=5;jettySize=auto;orthogonalLoop=1;strokeColor=#B3B3B3;strokeWidth=1;fontFamily=Verdana;fontSize=14;exitX=0.5;exitY=1;exitDx=0;exitDy=0;entryX=0.5;entryY=0;entryDx=0;entryDy=0;" edge="1" parent="1" source="1ea317790d2ca983-9" target="aNrE-HnWaW6_fpo6UWwL-39">
          <mxGeometry relative="1" as="geometry">
            <mxPoint x="1165" y="140" as="targetPoint" />
            <mxPoint x="1125" y="170" as="sourcePoint" />
          </mxGeometry>
        </mxCell>
        <mxCell id="aNrE-HnWaW6_fpo6UWwL-39" value="&lt;span style=&quot;font-size: 14px;&quot;&gt;Jefe de proyecto&lt;/span&gt;" style="ellipse;whiteSpace=wrap;html=1;rounded=0;shadow=1;comic=0;labelBackgroundColor=none;strokeWidth=1;fontFamily=Verdana;fontSize=14;align=center;fillColor=#e1d5e7;strokeColor=#9673a6;" vertex="1" parent="1">
          <mxGeometry x="950" y="420" width="150" height="50" as="geometry" />
        </mxCell>
        <mxCell id="aNrE-HnWaW6_fpo6UWwL-40" value="Cliente" style="ellipse;whiteSpace=wrap;html=1;rounded=0;shadow=1;comic=0;labelBackgroundColor=none;strokeWidth=1;fontFamily=Comic Sans MS;fontSize=18;align=center;gradientDirection=east;fillColor=#f8cecc;strokeColor=#b85450;" vertex="1" parent="1">
          <mxGeometry x="135" y="260" width="110" height="110" as="geometry" />
        </mxCell>
        <mxCell id="aNrE-HnWaW6_fpo6UWwL-41" value="&lt;font style=&quot;font-size: 20px;&quot; face=&quot;Georgia&quot;&gt;Videojuego&lt;/font&gt;" style="ellipse;whiteSpace=wrap;html=1;rounded=0;shadow=1;comic=0;labelBackgroundColor=none;strokeWidth=1;fontFamily=Verdana;fontSize=14;align=center;gradientDirection=east;fillColor=#dae8fc;strokeColor=#6c8ebf;" vertex="1" parent="1">
          <mxGeometry x="110" y="440" width="160" height="70" as="geometry" />
        </mxCell>
        <mxCell id="aNrE-HnWaW6_fpo6UWwL-42" style="edgeStyle=none;rounded=1;html=1;labelBackgroundColor=none;startArrow=none;startFill=0;startSize=5;endArrow=classicThin;endFill=1;endSize=5;jettySize=auto;orthogonalLoop=1;strokeColor=#B3B3B3;strokeWidth=1;fontFamily=Verdana;fontSize=14;entryX=0.5;entryY=0;entryDx=0;entryDy=0;exitX=0.5;exitY=1;exitDx=0;exitDy=0;" edge="1" parent="1" source="aNrE-HnWaW6_fpo6UWwL-40" target="aNrE-HnWaW6_fpo6UWwL-41">
          <mxGeometry relative="1" as="geometry">
            <mxPoint x="370" y="550" as="sourcePoint" />
            <mxPoint x="512.9314575050762" y="357.6776695296637" as="targetPoint" />
          </mxGeometry>
        </mxCell>
        <mxCell id="aNrE-HnWaW6_fpo6UWwL-43" value="vende" style="edgeLabel;html=1;align=center;verticalAlign=middle;resizable=0;points=[];fontSize=14;fontFamily=Verdana;" vertex="1" connectable="0" parent="aNrE-HnWaW6_fpo6UWwL-42">
          <mxGeometry x="-0.2" relative="1" as="geometry">
            <mxPoint as="offset" />
          </mxGeometry>
        </mxCell>
        <mxCell id="aNrE-HnWaW6_fpo6UWwL-46" style="edgeStyle=none;rounded=1;html=1;labelBackgroundColor=none;startArrow=none;startFill=0;startSize=5;endArrow=classicThin;endFill=1;endSize=5;jettySize=auto;orthogonalLoop=1;strokeColor=#B3B3B3;strokeWidth=1;fontFamily=Verdana;fontSize=14;entryX=0.5;entryY=1;entryDx=0;entryDy=0;exitX=0.5;exitY=0;exitDx=0;exitDy=0;" edge="1" parent="1" source="aNrE-HnWaW6_fpo6UWwL-58" target="aNrE-HnWaW6_fpo6UWwL-41">
          <mxGeometry relative="1" as="geometry">
            <mxPoint x="190" y="560" as="sourcePoint" />
            <mxPoint x="369.5" y="640" as="targetPoint" />
          </mxGeometry>
        </mxCell>
        <mxCell id="aNrE-HnWaW6_fpo6UWwL-47" value="compra" style="edgeLabel;html=1;align=center;verticalAlign=middle;resizable=0;points=[];fontSize=14;fontFamily=Verdana;" vertex="1" connectable="0" parent="aNrE-HnWaW6_fpo6UWwL-46">
          <mxGeometry x="-0.2" relative="1" as="geometry">
            <mxPoint as="offset" />
          </mxGeometry>
        </mxCell>
        <mxCell id="aNrE-HnWaW6_fpo6UWwL-48" value="se compone por" style="edgeStyle=none;rounded=1;html=1;labelBackgroundColor=none;startArrow=none;startFill=0;startSize=5;endArrow=classicThin;endFill=1;endSize=5;jettySize=auto;orthogonalLoop=1;strokeColor=#B3B3B3;strokeWidth=1;fontFamily=Verdana;fontSize=14;exitX=1;exitY=0;exitDx=0;exitDy=0;entryX=0;entryY=0.5;entryDx=0;entryDy=0;" edge="1" parent="1" source="aNrE-HnWaW6_fpo6UWwL-41" target="aNrE-HnWaW6_fpo6UWwL-31">
          <mxGeometry relative="1" as="geometry">
            <mxPoint x="380" y="430" as="targetPoint" />
            <mxPoint x="309.9999999999999" y="425" as="sourcePoint" />
          </mxGeometry>
        </mxCell>
        <mxCell id="aNrE-HnWaW6_fpo6UWwL-49" value="se compone por" style="edgeStyle=none;rounded=1;html=1;labelBackgroundColor=none;startArrow=none;startFill=0;startSize=5;endArrow=classicThin;endFill=1;endSize=5;jettySize=auto;orthogonalLoop=1;strokeColor=#B3B3B3;strokeWidth=1;fontFamily=Verdana;fontSize=14;exitX=1;exitY=1;exitDx=0;exitDy=0;entryX=0;entryY=0.5;entryDx=0;entryDy=0;" edge="1" parent="1" source="aNrE-HnWaW6_fpo6UWwL-41" target="aNrE-HnWaW6_fpo6UWwL-51">
          <mxGeometry x="0.0032" relative="1" as="geometry">
            <mxPoint x="420" y="490" as="targetPoint" />
            <mxPoint x="272" y="522" as="sourcePoint" />
            <mxPoint as="offset" />
          </mxGeometry>
        </mxCell>
        <mxCell id="aNrE-HnWaW6_fpo6UWwL-51" value="Gráficos" style="ellipse;whiteSpace=wrap;html=1;rounded=0;shadow=1;comic=0;labelBackgroundColor=none;strokeWidth=1;fontFamily=Verdana;fontSize=14;align=center;fillColor=#d5e8d4;strokeColor=#82b366;" vertex="1" parent="1">
          <mxGeometry x="640" y="520" width="110" height="50" as="geometry" />
        </mxCell>
        <mxCell id="aNrE-HnWaW6_fpo6UWwL-53" value="se compone por" style="edgeStyle=none;rounded=1;html=1;labelBackgroundColor=none;startArrow=none;startFill=0;startSize=5;endArrow=classicThin;endFill=1;endSize=5;jettySize=auto;orthogonalLoop=1;strokeColor=#B3B3B3;strokeWidth=1;fontFamily=Verdana;fontSize=14;exitX=1;exitY=0.5;exitDx=0;exitDy=0;entryX=0.5;entryY=0;entryDx=0;entryDy=0;" edge="1" parent="1" source="1ea317790d2ca983-9" target="aNrE-HnWaW6_fpo6UWwL-23">
          <mxGeometry relative="1" as="geometry">
            <mxPoint x="1180" y="215" as="targetPoint" />
            <mxPoint x="1050" y="280" as="sourcePoint" />
            <Array as="points">
              <mxPoint x="1220" y="340" />
            </Array>
          </mxGeometry>
        </mxCell>
        <mxCell id="aNrE-HnWaW6_fpo6UWwL-54" value="se compone por" style="edgeStyle=none;rounded=1;html=1;labelBackgroundColor=none;startArrow=none;startFill=0;startSize=5;endArrow=classicThin;endFill=1;endSize=5;jettySize=auto;orthogonalLoop=1;strokeColor=#B3B3B3;strokeWidth=1;fontFamily=Verdana;fontSize=14;exitX=0;exitY=1;exitDx=0;exitDy=0;entryX=0.5;entryY=0;entryDx=0;entryDy=0;" edge="1" parent="1" source="1ea317790d2ca983-9" target="aNrE-HnWaW6_fpo6UWwL-29">
          <mxGeometry relative="1" as="geometry">
            <mxPoint x="903" y="290" as="targetPoint" />
            <mxPoint x="1050" y="260" as="sourcePoint" />
          </mxGeometry>
        </mxCell>
        <mxCell id="aNrE-HnWaW6_fpo6UWwL-55" value="desarrolla" style="edgeStyle=none;rounded=1;html=1;labelBackgroundColor=none;startArrow=none;startFill=0;startSize=5;endArrow=classicThin;endFill=1;endSize=5;jettySize=auto;orthogonalLoop=1;strokeColor=#B3B3B3;strokeWidth=1;fontFamily=Verdana;fontSize=14;exitX=0;exitY=1;exitDx=0;exitDy=0;entryX=1;entryY=0;entryDx=0;entryDy=0;" edge="1" parent="1" source="aNrE-HnWaW6_fpo6UWwL-29" target="aNrE-HnWaW6_fpo6UWwL-31">
          <mxGeometry relative="1" as="geometry">
            <mxPoint x="330" y="327" as="sourcePoint" />
            <mxPoint x="755" y="365" as="targetPoint" />
          </mxGeometry>
        </mxCell>
        <mxCell id="aNrE-HnWaW6_fpo6UWwL-56" value="supervisa" style="edgeStyle=none;rounded=1;html=1;labelBackgroundColor=none;startArrow=none;startFill=0;startSize=5;endArrow=classicThin;endFill=1;endSize=5;jettySize=auto;orthogonalLoop=1;strokeColor=#B3B3B3;strokeWidth=1;fontFamily=Verdana;fontSize=14;exitX=0;exitY=0;exitDx=0;exitDy=0;entryX=1;entryY=1;entryDx=0;entryDy=0;" edge="1" parent="1" source="aNrE-HnWaW6_fpo6UWwL-39" target="aNrE-HnWaW6_fpo6UWwL-29">
          <mxGeometry relative="1" as="geometry">
            <mxPoint x="1405" y="460" as="sourcePoint" />
            <mxPoint x="740" y="465" as="targetPoint" />
          </mxGeometry>
        </mxCell>
        <mxCell id="aNrE-HnWaW6_fpo6UWwL-57" value="supervisa" style="edgeStyle=none;rounded=1;html=1;labelBackgroundColor=none;startArrow=none;startFill=0;startSize=5;endArrow=classicThin;endFill=1;endSize=5;jettySize=auto;orthogonalLoop=1;strokeColor=#B3B3B3;strokeWidth=1;fontFamily=Verdana;fontSize=14;exitX=1;exitY=0.5;exitDx=0;exitDy=0;entryX=0;entryY=0.5;entryDx=0;entryDy=0;" edge="1" parent="1" source="aNrE-HnWaW6_fpo6UWwL-39" target="aNrE-HnWaW6_fpo6UWwL-23">
          <mxGeometry relative="1" as="geometry">
            <mxPoint x="1242" y="470" as="sourcePoint" />
            <mxPoint x="1090" y="378" as="targetPoint" />
          </mxGeometry>
        </mxCell>
        <mxCell id="aNrE-HnWaW6_fpo6UWwL-58" value="Usuario" style="ellipse;whiteSpace=wrap;html=1;rounded=0;shadow=1;comic=0;labelBackgroundColor=none;strokeWidth=1;fontFamily=Comic Sans MS;fontSize=18;align=center;gradientDirection=east;fillColor=#f8cecc;strokeColor=#b85450;" vertex="1" parent="1">
          <mxGeometry x="135" y="580" width="110" height="110" as="geometry" />
        </mxCell>
        <mxCell id="aNrE-HnWaW6_fpo6UWwL-59" value="Mutiny&lt;div style=&quot;font-size: 18px;&quot;&gt;Systems&lt;/div&gt;" style="ellipse;whiteSpace=wrap;html=1;rounded=0;shadow=1;comic=0;labelBackgroundColor=none;strokeWidth=1;fontFamily=Comic Sans MS;fontSize=18;align=center;gradientDirection=east;fillColor=#f8cecc;strokeColor=#b85450;" vertex="1" parent="1">
          <mxGeometry x="905" y="-30" width="110" height="110" as="geometry" />
        </mxCell>
      </root>
    </mxGraphModel>
  </diagram>
</mxfile>
